<svg width="32" height="27" viewBox="0 0 32 27" fill="#1b77f3" xmlns="http://www.w3.org/2000/svg">
<path d="M10 1H22C24.2091 1 26 2.79086 26 5V26H6V5C6 2.79086 7.79086 1 10 1Z" fill="#1b77f3" stroke="black" stroke-width="2"/>
<path d="M7.50003 26V13.375C7.50006 8.87508 0.99991 8.87495 1 13.3749L1 23.1259C1 25.6259 2.5 26 4.5 26H7.50003Z" fill="#1b77f3"/>
<path d="M7.50003 26V13.375C7.50006 8.87508 0.99991 8.87495 1 13.3749M7.50003 26C6.50003 26 5.7 26 4.5 26M7.50003 26H4.5M1 13.3749C1.00003 14.8749 1 22.7926 1 23.1259M1 13.3749L1 23.1259M1 23.1259C1 25.6259 2.5 26 4.5 26" stroke="black" stroke-width="2"/>
<path d="M24 26V15.5V13.3486C24 8.88387 30.5001 8.88373 30.5 13.3486L30.5 23.0234C30.5 25.5039 28.9999 26 27 26H24Z" fill="#1b77f3"/>
<path d="M24 26C25 26 25.8 26 27 26M24 26H27M24 26V15.5M30.5 13.3486C30.5001 8.88373 24 8.88387 24 13.3486V15.5M30.5 13.3486C30.5 14.8369 30.5 22.6927 30.5 23.0234M30.5 13.3486L30.5 23.0234M30.5 23.0234C30.5 25.5039 28.9999 26 27 26M7.5 15.5H24" stroke="black" stroke-width="2"/>
</svg>
